<svg id="Layer_1" data-name="Layer 1" xmlns="http://www.w3.org/2000/svg" viewBox="0 0 260.37 140.83"><defs><style>.cls-1{fill:#ccc;}.cls-2{fill:#bcbcbc;}.cls-3{fill:#dbdbda;}.cls-4{fill:#cececd;}</style></defs><title>brokencloud</title><path class="cls-1" d="M1004,439.32c-3.57-13.65-18.16-23.89-35.64-23.92-.56,0-1.11,0-1.66,0-8.75-12.62-25.61-21.19-45-21.22-28.4,0-51.45,18.25-51.49,40.85a33.3,33.3,0,0,0,.71,6.87c-5,4-8.06,9.29-8.07,15.14a18.76,18.76,0,0,0,5.93,13.3A4.35,4.35,0,0,1,868,468c0-6.15,15.16-11.51,37.89-14.49a6.2,6.2,0,0,1-.2-1.54c0-9.45,22-17.07,49-17s49,7.74,49,17.19a7,7,0,0,1-1.13,3.65c15.41,3.14,25,7.57,25,12.48a4.11,4.11,0,0,1-.4,1.71,14.67,14.67,0,0,0,4.55-10.11C1031.75,450,1020,441.76,1004,439.32Z" transform="translate(-771.36 -394.21)"/><path class="cls-2" d="M1002.55,455.73a6.82,6.82,0,0,0,1.13-3.65c0-9.45-21.94-17.11-49-17.13s-49,7.64-49,17.09a6.2,6.2,0,0,0,.2,1.54c-22.72,3-37.87,8.39-37.87,14.54,0,9.44,35.73,17.11,79.8,17.13s79.81-7.63,79.82-17.07C1027.6,463.28,1018,458.85,1002.55,455.73Z" transform="translate(-771.36 -394.21)"/><path class="cls-3" d="M950.72,476.68c-4.54-17.35-23.07-30.36-45.29-30.39-.71,0-1.41,0-2.12,0-11.11-16-32.54-26.93-57.17-27-36.09-.06-65.38,23.18-65.43,51.91a42,42,0,0,0,.91,8.72c-6.35,5.05-10.24,11.81-10.26,19.24,0,6.33,2.79,12.18,7.53,16.9a5.39,5.39,0,0,1-1-3c0-7.82,19.26-14.63,48.14-18.42a7.15,7.15,0,0,1-.25-1.95c0-12,27.91-21.69,62.31-21.64s62.26,9.83,62.24,21.84a8.69,8.69,0,0,1-1.43,4.63c19.59,4,31.82,9.63,31.81,15.86a5.26,5.26,0,0,1-.51,2.17c3.68-3.81,5.77-8.18,5.78-12.83C986,490.29,971.05,479.78,950.72,476.68Z" transform="translate(-771.36 -394.21)"/><path class="cls-4" d="M948.92,497.61a8.7,8.7,0,0,0,1.43-4.64c0-12-27.84-21.77-62.24-21.83s-62.3,9.63-62.31,21.63a7.22,7.22,0,0,0,.25,2c-28.88,3.79-48.13,10.6-48.14,18.42,0,12,45.36,21.8,101.37,21.89s101.43-9.57,101.45-21.57C980.74,507.24,968.51,501.61,948.92,497.61Z" transform="translate(-771.36 -394.21)"/></svg>