<svg id="Layer_1" data-name="Layer 1" xmlns="http://www.w3.org/2000/svg" xmlns:xlink="http://www.w3.org/1999/xlink" viewBox="0 0 176.49 176.49"><defs><style>.cls-1{fill:url(#linear-gradient);}.cls-2{fill:#fff100;}</style><linearGradient id="linear-gradient" x1="800.47" y1="444.44" x2="816.86" y2="391.6" gradientUnits="userSpaceOnUse"><stop offset="0" stop-color="#ffc132"/><stop offset="1" stop-color="#ffc10e"/></linearGradient></defs><title>sunny</title><path class="cls-1" d="M868.49,488.71l-10.28-38.37c.63-1.36,1.2-2.75,1.73-4.17l34.39-19.86-34.39-19.85c-.53-1.42-1.1-2.81-1.73-4.17l10.28-38.37L830.12,374.2c-1.36-.63-2.75-1.21-4.17-1.73l-19.86-34.4-19.86,34.4c-1.42.52-2.81,1.1-4.17,1.73l-38.37-10.28L754,402.29c-.63,1.36-1.21,2.75-1.73,4.17l-34.39,19.85,34.39,19.86c.52,1.42,1.1,2.81,1.73,4.17l-10.28,38.37,38.37-10.28c1.36.63,2.75,1.21,4.17,1.73l19.86,34.4L826,480.16c1.42-.52,2.81-1.1,4.17-1.73Z" transform="translate(-717.85 -338.07)"/><circle class="cls-2" cx="88.24" cy="88.24" r="44.88"/></svg>