<svg id="Layer_1" data-name="Layer 1" xmlns="http://www.w3.org/2000/svg" viewBox="0 0 363.41 190.69"><defs><style>.cls-1{fill:#dbdbda;}.cls-2{fill:#cececd;}.cls-3{fill:#d6d4ce;}.cls-4{fill:#bcbbb1;}.cls-5{fill:#e7e5d4;}</style></defs><title>mostlyclear</title><path class="cls-1" d="M525.43,165.39c-3.66-14-18.62-24.5-36.55-24.53-.57,0-1.14,0-1.71,0-9-13-26.26-21.73-46.13-21.77-29.13,0-52.77,18.71-52.81,41.89a34.35,34.35,0,0,0,.73,7c-5.12,4.07-8.26,9.52-8.27,15.52a19.2,19.2,0,0,0,6.07,13.64,4.47,4.47,0,0,1-.79-2.45c0-6.3,15.54-11.81,38.85-14.86a6.06,6.06,0,0,1-.2-1.58c0-9.69,22.53-17.5,50.28-17.46s50.25,7.94,50.24,17.62a7,7,0,0,1-1.16,3.74c15.81,3.23,25.68,7.78,25.67,12.8a4.12,4.12,0,0,1-.41,1.76c3-3.08,4.66-6.61,4.66-10.37C553.92,176.37,541.84,167.89,525.43,165.39Z" transform="translate(-380.69 -109.12)"/><path class="cls-2" d="M524,182.8a7,7,0,0,0,1.19-3.73c.11-9.68-22.31-17.78-50.07-18.08s-50.34,7.3-50.45,17a6.5,6.5,0,0,0,.19,1.58c-23.33,2.84-38.92,8.2-39,14.5-.11,9.69,36.44,17.94,81.64,18.43s81.92-7,82-16.65C549.62,190.81,539.8,186.17,524,182.8Z" transform="translate(-380.69 -109.12)"/><circle class="cls-3" cx="152.4" cy="65.53" r="65.53"/><path class="cls-4" d="M548.14,227.47a65.51,65.51,0,0,1-49.3-108.67,65.52,65.52,0,1,0,83.58,99A65.27,65.27,0,0,1,548.14,227.47Z" transform="translate(-380.69 -109.12)"/><circle class="cls-5" cx="147.05" cy="26.71" r="12.93"/><circle class="cls-5" cx="182.83" cy="44.66" r="20.87"/><circle class="cls-5" cx="140.58" cy="59.06" r="6.46"/><circle class="cls-5" cx="105.75" cy="75.29" r="6.46"/><circle class="cls-5" cx="118.88" cy="42.37" r="10.03"/><circle class="cls-5" cx="192.08" cy="88.8" r="7.05"/><circle class="cls-5" cx="129.82" cy="106.63" r="10.03"/><path class="cls-1" d="M707.91,240c-4.65-17.78-23.66-31.13-46.44-31.16-.72,0-1.45,0-2.17,0-11.39-16.45-33.36-27.61-58.63-27.65-37-.06-67,23.77-67.09,53.23a42.85,42.85,0,0,0,.93,8.94C528,248.52,524,255.46,524,263.08c0,6.49,2.86,12.49,7.72,17.33a5.68,5.68,0,0,1-1-3.11c0-8,19.75-15,49.37-18.88a8.09,8.09,0,0,1-.26-2c0-12.31,28.63-22.24,63.9-22.18s63.85,10.08,63.83,22.38a8.88,8.88,0,0,1-1.47,4.76c20.09,4.1,32.63,9.88,32.62,16.26a5.23,5.23,0,0,1-.52,2.23c3.77-3.91,5.92-8.39,5.92-13.17C744.12,253.91,728.77,243.13,707.91,240Z" transform="translate(-380.69 -109.12)"/><path class="cls-2" d="M706.07,261.42a8.88,8.88,0,0,0,1.47-4.76c0-12.3-28.56-22.33-63.83-22.38s-63.88,9.87-63.9,22.18a8,8,0,0,0,.26,2c-29.62,3.88-49.36,10.87-49.37,18.88,0,12.31,46.52,22.36,104,22.45s104-9.81,104-22.12C738.7,271.3,726.16,265.52,706.07,261.42Z" transform="translate(-380.69 -109.12)"/></svg>