<svg id="Layer_1" data-name="Layer 1" xmlns="http://www.w3.org/2000/svg" xmlns:xlink="http://www.w3.org/1999/xlink" viewBox="0 0 308.12 183.98"><defs><style>.cls-1{fill:#dbdbda;}.cls-2{fill:#cececd;}.cls-3{fill:url(#linear-gradient);}.cls-4{fill:#fff100;}</style><linearGradient id="linear-gradient" x1="456.91" y1="431.57" x2="472.42" y2="381.59" gradientUnits="userSpaceOnUse"><stop offset="0" stop-color="#ffc132"/><stop offset="1" stop-color="#ffc10e"/></linearGradient></defs><title>partlysunny</title><path class="cls-1" d="M438.07,401.15c-3.12-11.86-15.81-20.74-31-20.74l-1.44,0c-7.62-11-22.29-18.38-39.14-18.38-24.68,0-44.69,15.93-44.69,35.58a28.11,28.11,0,0,0,.63,6c-4.34,3.46-7,8.09-7,13.17a16.24,16.24,0,0,0,5.17,11.55,3.78,3.78,0,0,1-.68-2.07c0-5.35,13.16-10,32.91-12.65a5.53,5.53,0,0,1-.17-1.34c0-8.21,19.07-14.86,42.59-14.86s42.6,6.65,42.6,14.86a6,6,0,0,1-1,3.17c13.4,2.71,21.77,6.56,21.77,10.82a3.45,3.45,0,0,1-.35,1.48,12.65,12.65,0,0,0,3.94-8.78C462.23,410.42,452,403.25,438.07,401.15Z" transform="translate(-315.42 -330.94)"/><path class="cls-2" d="M437,417.81a6.06,6.06,0,0,0,1.13-3.12c.4-8.2-18.32-15.78-41.82-16.94S353.44,402.3,353,410.5a5.56,5.56,0,0,0,.11,1.35c-19.85,1.65-33.23,5.68-33.49,11-.4,8.2,30.29,16.37,68.55,18.25s69.61-3.24,70-11.44C458.42,425.42,450.25,421.18,437,417.81Z" transform="translate(-315.42 -330.94)"/><path class="cls-3" d="M521.27,473.46l-9.73-36.3c.6-1.29,1.14-2.61,1.64-4l32.54-18.79-32.54-18.78c-.5-1.34-1-2.66-1.64-3.95l9.73-36.3L485,365.12c-1.29-.6-2.61-1.15-4-1.64l-18.79-32.54-18.78,32.54c-1.35.49-2.66,1-3.95,1.64l-36.3-9.73,9.73,36.3c-.6,1.29-1.15,2.61-1.64,3.95l-32.54,18.78,32.54,18.79c.49,1.34,1,2.66,1.64,4l-9.73,36.3,36.3-9.73c1.29.6,2.6,1.15,3.95,1.64l18.78,32.54L481,465.37c1.34-.49,2.66-1,4-1.64Z" transform="translate(-315.42 -330.94)"/><circle class="cls-4" cx="146.81" cy="83.49" r="42.46"/><path class="cls-1" d="M592.83,464.09c-4-15.06-20.09-26.35-39.4-26.35-.61,0-1.23,0-1.84,0-9.67-13.92-28.31-23.36-49.72-23.36-31.37,0-56.8,20.24-56.8,45.21a36.66,36.66,0,0,0,.8,7.58C440.36,471.6,437,477.48,437,484c0,5.5,2.44,10.58,6.56,14.68a4.86,4.86,0,0,1-.86-2.64c0-6.79,16.72-12.74,41.82-16.07a6.56,6.56,0,0,1-.22-1.7c0-10.44,24.23-18.89,54.13-18.89s54.12,8.45,54.12,18.89a7.57,7.57,0,0,1-1.24,4c17,3.44,27.67,8.32,27.67,13.74a4.46,4.46,0,0,1-.44,1.89c3.19-3.32,5-7.13,5-11.17C623.54,475.87,610.51,466.76,592.83,464.09Z" transform="translate(-315.42 -330.94)"/><path class="cls-2" d="M591.3,482.29a7.57,7.57,0,0,0,1.24-4c0-10.43-24.23-18.89-54.12-18.89s-54.13,8.46-54.13,18.89a6.56,6.56,0,0,0,.22,1.7c-25.1,3.33-41.82,9.28-41.82,16.07,0,10.43,39.46,18.89,88.14,18.89S619,506.46,619,496C619,490.62,608.34,485.73,591.3,482.29Z" transform="translate(-315.42 -330.94)"/></svg>