<svg id="Layer_1" data-name="Layer 1" xmlns="http://www.w3.org/2000/svg" viewBox="0 0 264.39 116.07"><defs><style>.cls-1{fill:#cececd;}</style></defs><title>weather app</title><path class="cls-1" d="M809,202.23c-14.85,0-22.64-4.22-29.51-7.95-6.33-3.42-11.79-6.38-23.37-6.38s-17,3-23.37,6.38c-6.87,3.73-14.66,7.95-29.51,7.95s-22.65-4.22-29.51-7.95c-6.33-3.42-11.79-6.38-23.37-6.38s-17,3-23.36,6.38c-6.87,3.73-14.66,7.95-29.52,7.95S574.84,198,568,194.28c-6.32-3.42-11.78-6.38-23.36-6.38V175c14.85,0,22.64,4.22,29.51,7.94,6.32,3.43,11.78,6.39,23.36,6.39s17-3,23.37-6.39c6.87-3.72,14.66-7.94,29.51-7.94s22.64,4.22,29.51,7.94c6.32,3.43,11.78,6.39,23.37,6.39s17-3,23.36-6.39c6.87-3.72,14.66-7.94,29.52-7.94s22.64,4.22,29.51,7.94c6.33,3.43,11.79,6.39,23.37,6.39Z" transform="translate(-544.61 -175)"/><path class="cls-1" d="M809,246.65c-14.85,0-22.64-4.22-29.51-7.94-6.33-3.43-11.79-6.39-23.37-6.39s-17,3-23.37,6.39c-6.87,3.72-14.66,7.94-29.51,7.94s-22.65-4.22-29.51-7.94c-6.33-3.43-11.79-6.39-23.37-6.39s-17,3-23.36,6.39c-6.87,3.72-14.66,7.94-29.52,7.94s-22.64-4.22-29.51-7.94c-6.32-3.43-11.78-6.39-23.36-6.39v-12.9c14.85,0,22.64,4.22,29.51,8,6.32,3.42,11.78,6.38,23.36,6.38s17-3,23.37-6.38c6.87-3.73,14.66-8,29.51-8s22.64,4.22,29.51,8c6.32,3.42,11.78,6.38,23.37,6.38s17-3,23.36-6.38c6.87-3.73,14.66-8,29.52-8s22.64,4.22,29.51,8c6.33,3.42,11.79,6.38,23.37,6.38Z" transform="translate(-544.61 -175)"/><path class="cls-1" d="M809,291.07c-14.85,0-22.64-4.22-29.51-7.94-6.33-3.43-11.79-6.39-23.37-6.39s-17,3-23.37,6.39c-6.87,3.72-14.66,7.94-29.51,7.94s-22.65-4.22-29.51-7.94c-6.33-3.43-11.79-6.39-23.37-6.39s-17,3-23.36,6.39c-6.87,3.72-14.66,7.94-29.52,7.94s-22.64-4.22-29.51-7.94c-6.32-3.43-11.78-6.39-23.36-6.39V263.85c14.85,0,22.64,4.22,29.51,7.94,6.32,3.43,11.78,6.39,23.36,6.39s17-3,23.37-6.39c6.87-3.72,14.66-7.94,29.51-7.94s22.64,4.22,29.51,7.94c6.32,3.43,11.78,6.39,23.37,6.39s17-3,23.36-6.39c6.87-3.72,14.66-7.94,29.52-7.94s22.64,4.22,29.51,7.94c6.33,3.43,11.79,6.39,23.37,6.39Z" transform="translate(-544.61 -175)"/></svg>