<svg id="Layer_1" data-name="Layer 1" xmlns="http://www.w3.org/2000/svg" xmlns:xlink="http://www.w3.org/1999/xlink" viewBox="0 0 188.75 195.14"><defs><style>.cls-1{fill:url(#linear-gradient);}.cls-2{fill:#fff100;}.cls-3{fill:#dbdbda;}.cls-4{fill:#cececd;}.cls-5{fill:#56caf4;}</style><linearGradient id="linear-gradient" x1="849.12" y1="-169.61" x2="859.16" y2="-137.25" gradientTransform="matrix(1, 0, 0, -1, -717.85, -92.07)" gradientUnits="userSpaceOnUse"><stop offset="0" stop-color="#ffc132"/><stop offset="1" stop-color="#ffc10e"/></linearGradient></defs><title>rain-day</title><path class="cls-1" d="M172.92,104.66l-6.29-23.5c.38-.84.73-1.69,1.06-2.56l21.06-12.16L167.69,54.28c-.33-.87-.68-1.72-1.06-2.56l6.29-23.5-23.5,6.3c-.83-.39-1.68-.74-2.55-1.06L134.7,12.39,122.54,33.46c-.87.32-1.72.67-2.56,1.06l-23.5-6.3,6.32,23.5c-.39.84-.74,1.69-1.06,2.56L80.67,66.44,101.74,78.6c.32.87.67,1.72,1.06,2.56l-6.3,23.5,23.5-6.3c.84.39,1.69.74,2.56,1.06l12.16,21.07L146.9,99.42c.87-.32,1.72-.67,2.55-1.06Z" transform="translate(0 -12.39)"/><circle class="cls-2" cx="134.7" cy="54.05" r="27.49"/><path class="cls-3" d="M148.19,90.34C144.43,74.16,129.09,62,110.73,62H109C99.78,47.09,82.05,37,61.69,37c-29.82,0-54,21.73-54,48.54a44.62,44.62,0,0,0,.76,8.15,24.16,24.16,0,0,0-8.45,18,23.52,23.52,0,0,0,6.25,15.76,5.54,5.54,0,0,1-.82-2.83c0-7.29,15.9-13.69,39.76-17.26a8,8,0,0,1-.21-1.83c0-11.2,23-20.28,51.47-20.28s51.47,9.09,51.47,20.29a8.9,8.9,0,0,1-1.18,4.33c16.19,3.7,26.3,8.94,26.3,14.76a5.46,5.46,0,0,1-.41,2,18.46,18.46,0,0,0,4.76-12C177.39,103,165,93.2,148.19,90.34Z" transform="translate(0 -12.39)"/><path class="cls-4" d="M146.74,109.88a8.9,8.9,0,0,0,1.18-4.33c0-11.2-23-20.29-51.47-20.29S45,94.35,45,105.55a8,8,0,0,0,.21,1.83c-23.86,3.57-39.76,10-39.76,17.25,0,11.21,37.52,20.29,83.81,20.29s83.8-9.08,83.8-20.29C173,118.82,162.92,113.58,146.74,109.88Z" transform="translate(0 -12.39)"/><path class="cls-5" d="M50.92,176.68A6,6,0,0,1,44,172.17l-4.57-16.84a5.57,5.57,0,0,1,3.57-7l.17-.05a6,6,0,0,1,6.88,4.51l4.57,16.84a5.57,5.57,0,0,1-3.58,7Z" transform="translate(0 -12.39)"/><path class="cls-5" d="M88.61,176.68a6,6,0,0,1-6.87-4.51l-4.57-16.84a5.57,5.57,0,0,1,3.57-7l.16-.05a6,6,0,0,1,6.88,4.51l4.57,16.84a5.57,5.57,0,0,1-3.58,7Z" transform="translate(0 -12.39)"/><path class="cls-5" d="M126.27,176.29a6,6,0,0,1-6.88-4.51l-4.57-16.84a5.57,5.57,0,0,1,3.57-7l.17,0a6,6,0,0,1,6.88,4.51L130,169.22a5.55,5.55,0,0,1-3.55,7Z" transform="translate(0 -12.39)"/><path class="cls-5" d="M163.92,176.68a6,6,0,0,1-6.87-4.51l-4.57-16.84a5.57,5.57,0,0,1,3.57-7l.16-.05a6,6,0,0,1,6.88,4.51l4.57,16.84a5.57,5.57,0,0,1-3.58,7Z" transform="translate(0 -12.39)"/><path class="cls-5" d="M76.66,207.44a6,6,0,0,1-6.88-4.52l-4.56-16.83a5.56,5.56,0,0,1,3.55-7l.18,0a6,6,0,0,1,6.88,4.51l4.57,16.84a5.57,5.57,0,0,1-3.58,7Z" transform="translate(0 -12.39)"/><path class="cls-5" d="M114.32,207.44a6,6,0,0,1-6.88-4.52l-4.52-16.83a5.57,5.57,0,0,1,3.57-7l.17,0a6,6,0,0,1,6.87,4.51l4.57,16.84a5.56,5.56,0,0,1-3.59,7Z" transform="translate(0 -12.39)"/><path class="cls-5" d="M152,207.05a6,6,0,0,1-6.88-4.51l-4.56-16.86a5.56,5.56,0,0,1,3.55-7l.18,0a6,6,0,0,1,6.88,4.51L155.71,200a5.57,5.57,0,0,1-3.55,7Z" transform="translate(0 -12.39)"/></svg>