<svg id="Layer_1" data-name="Layer 1" xmlns="http://www.w3.org/2000/svg" viewBox="0 0 182.73 185.95"><defs><style>.cls-1{fill:#d6d4ce;}.cls-2{fill:#bcbbb1;}.cls-3{fill:#e7e5d4;}.cls-4{fill:#dbdbda;}.cls-5{fill:#cececd;}.cls-6{fill:#56caf4;}</style></defs><title>rain-night</title><circle class="cls-1" cx="139.92" cy="42.8" r="42.8"/><path class="cls-2" d="M149.75,98.88a42.78,42.78,0,0,1-32.2-71,42.8,42.8,0,1,0,54.59,64.65A42.63,42.63,0,0,1,149.75,98.88Z" transform="translate(0 -21.58)"/><circle class="cls-3" cx="136.43" cy="17.45" r="8.44"/><circle class="cls-3" cx="159.8" cy="29.17" r="13.63"/><circle class="cls-3" cx="132.2" cy="38.58" r="4.22"/><circle class="cls-3" cx="109.45" cy="49.17" r="4.22"/><circle class="cls-3" cx="118.03" cy="27.67" r="6.55"/><circle class="cls-3" cx="165.84" cy="58" r="4.61"/><circle class="cls-3" cx="125.17" cy="69.65" r="6.55"/><path class="cls-4" d="M148.19,90.34C144.43,74.16,129.09,62,110.73,62H109C99.78,47.09,82.05,37,61.69,37c-29.82,0-54,21.73-54,48.54a44.62,44.62,0,0,0,.76,8.15,24.16,24.16,0,0,0-8.45,18,23.52,23.52,0,0,0,6.25,15.76,5.54,5.54,0,0,1-.82-2.83c0-7.29,15.9-13.69,39.76-17.26a8,8,0,0,1-.21-1.83c0-11.2,23-20.28,51.47-20.28s51.47,9.09,51.47,20.29a8.9,8.9,0,0,1-1.18,4.33c16.19,3.7,26.3,8.94,26.3,14.76a5.46,5.46,0,0,1-.41,2,18.46,18.46,0,0,0,4.76-12C177.39,103,165,93.2,148.19,90.34Z" transform="translate(0 -21.58)"/><path class="cls-5" d="M146.74,109.88a8.9,8.9,0,0,0,1.18-4.33c0-11.2-23-20.29-51.47-20.29S45,94.35,45,105.55a8,8,0,0,0,.21,1.83c-23.86,3.57-39.76,10-39.76,17.25,0,11.21,37.52,20.29,83.81,20.29s83.8-9.08,83.8-20.29C173,118.82,162.92,113.58,146.74,109.88Z" transform="translate(0 -21.58)"/><path class="cls-6" d="M50.92,176.68A6,6,0,0,1,44,172.17l-4.57-16.84a5.57,5.57,0,0,1,3.57-7l.17-.05a6,6,0,0,1,6.88,4.51l4.57,16.84a5.57,5.57,0,0,1-3.58,7Z" transform="translate(0 -21.58)"/><path class="cls-6" d="M88.61,176.68a6,6,0,0,1-6.87-4.51l-4.57-16.84a5.57,5.57,0,0,1,3.57-7l.16-.05a6,6,0,0,1,6.88,4.51l4.57,16.84a5.57,5.57,0,0,1-3.58,7Z" transform="translate(0 -21.58)"/><path class="cls-6" d="M126.27,176.29a6,6,0,0,1-6.88-4.51l-4.57-16.84a5.57,5.57,0,0,1,3.57-7l.17,0a6,6,0,0,1,6.88,4.51L130,169.22a5.55,5.55,0,0,1-3.55,7Z" transform="translate(0 -21.58)"/><path class="cls-6" d="M163.92,176.68a6,6,0,0,1-6.87-4.51l-4.57-16.84a5.57,5.57,0,0,1,3.57-7l.16-.05a6,6,0,0,1,6.88,4.51l4.57,16.84a5.57,5.57,0,0,1-3.58,7Z" transform="translate(0 -21.58)"/><path class="cls-6" d="M76.66,207.44a6,6,0,0,1-6.88-4.52l-4.56-16.83a5.56,5.56,0,0,1,3.55-7l.18,0a6,6,0,0,1,6.88,4.51l4.57,16.84a5.57,5.57,0,0,1-3.58,7Z" transform="translate(0 -21.58)"/><path class="cls-6" d="M114.32,207.44a6,6,0,0,1-6.88-4.52l-4.52-16.83a5.57,5.57,0,0,1,3.57-7l.17,0a6,6,0,0,1,6.87,4.51l4.57,16.84a5.56,5.56,0,0,1-3.59,7Z" transform="translate(0 -21.58)"/><path class="cls-6" d="M152,207.05a6,6,0,0,1-6.88-4.51l-4.56-16.86a5.56,5.56,0,0,1,3.55-7l.18,0a6,6,0,0,1,6.88,4.51L155.71,200a5.57,5.57,0,0,1-3.55,7Z" transform="translate(0 -21.58)"/></svg>