<svg id="Layer_1" data-name="Layer 1" xmlns="http://www.w3.org/2000/svg" viewBox="0 0 279.84 150.82"><defs><style>.cls-1{fill:#dbdbda;}.cls-2{fill:#cececd;}</style></defs><title>scatteredclouds</title><path class="cls-1" d="M940,458.89c-5.91-22.61-30.08-39.57-59-39.62-.93,0-1.84,0-2.76.06-14.48-20.92-42.42-35.11-74.54-35.16-47-.08-85.25,30.22-85.31,67.67a55.08,55.08,0,0,0,1.19,11.38c-8.28,6.57-13.36,15.39-13.37,25.08,0,8.26,3.63,15.88,9.81,22a7.17,7.17,0,0,1-1.28-4c0-10.19,25.11-19.08,62.76-24a10.49,10.49,0,0,1-.33-2.55c0-15.65,36.4-28.28,81.25-28.21s81.18,12.82,81.15,28.47a11.32,11.32,0,0,1-1.87,6.05c25.54,5.2,41.48,12.55,41.47,20.67a6.69,6.69,0,0,1-.66,2.83c4.8-5,7.53-10.67,7.54-16.74C986,476.64,966.53,462.94,940,458.89Z" transform="translate(-706.18 -384.17)"/><path class="cls-2" d="M937.67,486.19a11.32,11.32,0,0,0,1.87-6.05c0-15.64-36.31-28.39-81.15-28.46s-81.22,12.55-81.25,28.2a10.49,10.49,0,0,0,.33,2.55c-37.65,4.94-62.75,13.83-62.76,24,0,15.65,59.15,28.43,132.17,28.55s132.23-12.47,132.26-28.12C979.15,498.75,963.21,491.4,937.67,486.19Z" transform="translate(-706.18 -384.17)"/></svg>