<svg id="Layer_1" data-name="Layer 1" xmlns="http://www.w3.org/2000/svg" viewBox="0 0 177.39 170.58"><defs><style>.cls-1{fill:#dbdbda;}.cls-2{fill:#cececd;}.cls-3{fill:#56caf4;}</style></defs><title>rainy</title><path class="cls-1" d="M861.27,436.66c-3.76-16.18-19.1-28.3-37.46-28.3-.59,0-1.17,0-1.75,0-9.2-14.95-26.93-25.08-47.29-25.08-29.82,0-54,21.73-54,48.54a44.76,44.76,0,0,0,.76,8.15,24.16,24.16,0,0,0-8.45,18,23.55,23.55,0,0,0,6.25,15.76,5.56,5.56,0,0,1-.82-2.83c0-7.29,15.9-13.69,39.76-17.26a8,8,0,0,1-.21-1.83c0-11.2,23-20.28,51.47-20.28S861,440.62,861,451.82a8.87,8.87,0,0,1-1.18,4.33c16.19,3.7,26.3,8.94,26.3,14.76a5.41,5.41,0,0,1-.41,2,18.47,18.47,0,0,0,4.76-12C890.47,449.31,878.08,439.52,861.27,436.66Z" transform="translate(-713.08 -383.32)"/><path class="cls-2" d="M859.82,456.2a8.9,8.9,0,0,0,1.18-4.33c0-11.2-23-20.29-51.47-20.29s-51.47,9.09-51.47,20.29a8.16,8.16,0,0,0,.21,1.83c-23.86,3.57-39.76,10-39.76,17.25,0,11.21,37.52,20.29,83.81,20.29s83.8-9.08,83.8-20.29C886.12,465.14,876,459.9,859.82,456.2Z" transform="translate(-713.08 -383.32)"/><path class="cls-3" d="M764,523a6,6,0,0,1-6.88-4.51l-4.57-16.84a5.57,5.57,0,0,1,3.74-7.07,6,6,0,0,1,6.88,4.51l4.57,16.84A5.57,5.57,0,0,1,764,523Z" transform="translate(-713.08 -383.32)"/><path class="cls-3" d="M801.69,523a6,6,0,0,1-6.87-4.51l-4.57-16.84a5.57,5.57,0,0,1,3.73-7.07,6,6,0,0,1,6.88,4.51l4.57,16.84A5.57,5.57,0,0,1,801.69,523Z" transform="translate(-713.08 -383.32)"/><path class="cls-3" d="M839.35,522.61a6,6,0,0,1-6.88-4.51l-4.57-16.84a5.57,5.57,0,0,1,3.74-7.07,6,6,0,0,1,6.88,4.51l4.56,16.84A5.56,5.56,0,0,1,839.35,522.61Z" transform="translate(-713.08 -383.32)"/><path class="cls-3" d="M877,523a6,6,0,0,1-6.87-4.51l-4.57-16.84a5.57,5.57,0,0,1,3.73-7.07,6,6,0,0,1,6.88,4.51l4.57,16.84A5.57,5.57,0,0,1,877,523Z" transform="translate(-713.08 -383.32)"/><path class="cls-3" d="M789.74,553.76a6,6,0,0,1-6.88-4.52l-4.56-16.83a5.56,5.56,0,0,1,3.73-7.07,6,6,0,0,1,6.88,4.51l4.57,16.84A5.57,5.57,0,0,1,789.74,553.76Z" transform="translate(-713.08 -383.32)"/><path class="cls-3" d="M827.4,553.76a6,6,0,0,1-6.88-4.52L816,532.41a5.57,5.57,0,0,1,3.74-7.07,6,6,0,0,1,6.87,4.51l4.57,16.84A5.57,5.57,0,0,1,827.4,553.76Z" transform="translate(-713.08 -383.32)"/><path class="cls-3" d="M865.05,553.37a6,6,0,0,1-6.88-4.51L853.61,532a5.56,5.56,0,0,1,3.73-7.07,6,6,0,0,1,6.88,4.51l4.57,16.84A5.57,5.57,0,0,1,865.05,553.37Z" transform="translate(-713.08 -383.32)"/></svg>