<svg xmlns="http://www.w3.org/2000/svg" viewBox="0 0 177.39 146.9"><defs><style>.cls-1{fill:#cecece;}.cls-2{fill:#bfbfbf;}.cls-3{fill:#c7f2f1;}</style></defs><title>snow</title><g id="Layer_1" data-name="Layer 1"><path class="cls-1" d="M861.27,436.66c-3.76-16.18-19.1-28.3-37.46-28.3-.59,0-1.17,0-1.75,0-9.2-14.95-26.93-25.08-47.29-25.08-29.82,0-54,21.73-54,48.54a44.76,44.76,0,0,0,.76,8.15,24.16,24.16,0,0,0-8.45,18,23.55,23.55,0,0,0,6.25,15.76,5.56,5.56,0,0,1-.82-2.83c0-7.29,15.9-13.69,39.76-17.26a8,8,0,0,1-.21-1.83c0-11.2,23-20.28,51.47-20.28S861,440.62,861,451.82a8.87,8.87,0,0,1-1.18,4.33c16.19,3.7,26.3,8.94,26.3,14.76a5.41,5.41,0,0,1-.41,2,18.47,18.47,0,0,0,4.76-12C890.47,449.31,878.08,439.52,861.27,436.66Z" transform="translate(-713.08 -383.32)"/><path class="cls-2" d="M859.82,456.2a8.9,8.9,0,0,0,1.18-4.33c0-11.2-23-20.29-51.47-20.29s-51.47,9.09-51.47,20.29a8.16,8.16,0,0,0,.21,1.83c-23.86,3.57-39.76,10-39.76,17.25,0,11.21,37.52,20.29,83.81,20.29s83.8-9.08,83.8-20.29C886.12,465.14,876,459.9,859.82,456.2Z" transform="translate(-713.08 -383.32)"/></g><g id="Layer_2" data-name="Layer 2"><ellipse class="cls-3" cx="763.07" cy="471.37" rx="5.89" ry="7.75" transform="matrix(0.95, -0.32, 0.32, 0.95, -823.73, -114.65)"/><ellipse class="cls-3" cx="792.02" cy="459.38" rx="5.89" ry="7.81" transform="translate(-818.38 -106.03) rotate(-18.64)"/><ellipse class="cls-3" cx="825.77" cy="454.35" rx="5.89" ry="7.95" transform="translate(-815 -95.5) rotate(-18.64)"/><ellipse class="cls-3" cx="814.56" cy="480.39" rx="5.89" ry="7.45" transform="translate(-823.91 -97.72) rotate(-18.64)"/><ellipse class="cls-3" cx="843.44" cy="469.88" rx="5.89" ry="6.98" transform="matrix(0.95, -0.32, 0.32, 0.95, -819.03, -89.04)"/><ellipse class="cls-3" cx="787.83" cy="491.8" rx="5.89" ry="7.79" transform="translate(-828.96 -105.66) rotate(-18.64)"/><ellipse class="cls-3" cx="757.33" cy="498.93" rx="5.89" ry="6.98" transform="translate(-832.84 -115.04) rotate(-18.64)"/><ellipse class="cls-3" cx="771.71" cy="523.12" rx="5.89" ry="7.22" transform="matrix(0.95, -0.32, 0.32, 0.95, -839.82, -109.17)"/><ellipse class="cls-3" cx="810.2" cy="513.28" rx="5.89" ry="7.54" transform="translate(-834.65 -97.38) rotate(-18.64)"/><ellipse class="cls-3" cx="836.37" cy="499.23" rx="5.89" ry="7.22" transform="translate(-828.79 -89.76) rotate(-18.64)"/></g></svg>