<svg id="Layer_1" data-name="Layer 1" xmlns="http://www.w3.org/2000/svg" viewBox="0 0 231.36 236.63"><defs><style>.cls-1{fill:#dbdbda;}.cls-2{fill:#cececd;}.cls-3{fill:#56caf4;}.cls-4{fill:#efb81d;}</style></defs><title>thunderstorms</title><path class="cls-1" d="M503.09,240.25A50,50,0,0,0,454.22,201c-.76,0-1.52,0-2.28.05-12-20.75-35.12-34.81-61.67-34.81-38.9,0-70.43,30.17-70.43,67.38a64.87,64.87,0,0,0,1,11.3,34.43,34.43,0,0,0-11,24.94A34,34,0,0,0,318,291.72a8.19,8.19,0,0,1-1.07-3.93c0-10.12,20.74-19,51.86-24a12,12,0,0,1-.27-2.53c0-15.55,30-28.15,67.13-28.15s67.13,12.6,67.13,28.15a13,13,0,0,1-1.54,6c21.12,5.13,34.31,12.41,34.31,20.48a7.92,7.92,0,0,1-.54,2.81,26.55,26.55,0,0,0,6.2-16.64C541.16,257.81,525,244.22,503.09,240.25Z" transform="translate(-309.81 -166.22)"/><path class="cls-2" d="M501.19,267.37a13,13,0,0,0,1.54-6c0-15.55-30.06-28.15-67.13-28.15s-67.13,12.6-67.13,28.15a12,12,0,0,0,.27,2.54c-31.12,5-51.86,13.83-51.86,24,0,15.55,48.94,28.15,109.31,28.15S535.5,303.4,535.5,287.85C535.5,279.78,522.31,272.5,501.19,267.37Z" transform="translate(-309.81 -166.22)"/><path class="cls-3" d="M375.18,357.69a6.22,6.22,0,0,1-7.4-4.39l-6.92-25.48a5.82,5.82,0,0,1,4.27-7.2l2.17-.52a6.22,6.22,0,0,1,7.4,4.38L381.62,350a5.81,5.81,0,0,1-4.26,7.19Z" transform="translate(-309.81 -166.22)"/><path class="cls-3" d="M424.29,357.69a6.22,6.22,0,0,1-7.4-4.39L410,327.82a5.82,5.82,0,0,1,4.27-7.2l2.17-.52a6.24,6.24,0,0,1,7.41,4.38L430.73,350a5.8,5.8,0,0,1-4.26,7.19Z" transform="translate(-309.81 -166.22)"/><path class="cls-3" d="M473.4,357.18a6.23,6.23,0,0,1-7.4-4.39l-6.91-25.48a5.81,5.81,0,0,1,4.26-7.2l2.17-.52a6.24,6.24,0,0,1,7.41,4.39l6.91,25.48a5.81,5.81,0,0,1-4.26,7.2Z" transform="translate(-309.81 -166.22)"/><path class="cls-3" d="M522.52,357.69a6.24,6.24,0,0,1-7.41-4.39l-6.91-25.48a5.81,5.81,0,0,1,4.26-7.2l2.17-.52a6.24,6.24,0,0,1,7.41,4.38L529,350a5.8,5.8,0,0,1-4.26,7.19Z" transform="translate(-309.81 -166.22)"/><path class="cls-3" d="M408.7,397.81a6.23,6.23,0,0,1-7.4-4.39l-6.92-25.49a5.81,5.81,0,0,1,4.27-7.19l2.17-.52a6.23,6.23,0,0,1,7.41,4.38l6.91,25.49a5.81,5.81,0,0,1-4.26,7.19Z" transform="translate(-309.81 -166.22)"/><path class="cls-3" d="M506.93,397.3a6.24,6.24,0,0,1-7.41-4.39l-6.91-25.48a5.81,5.81,0,0,1,4.26-7.2l2.17-.52a6.23,6.23,0,0,1,7.41,4.39l6.91,25.48a5.81,5.81,0,0,1-4.26,7.2Z" transform="translate(-309.81 -166.22)"/><polygon class="cls-4" points="103.09 118.73 153.2 154.34 141.7 192.63 155.72 236.63 112.35 192.83 130.85 164.76 103.09 118.73"/></svg>